<mxfile host="app.diagrams.net" agent="Mozilla/5.0 (Macintosh; Intel Mac OS X 10_15_7) AppleWebKit/537.36 (KHTML, like Gecko) Chrome/133.0.0.0 Safari/537.36" version="26.1.0">
  <diagram name="Page-1" id="z1Fn_4oKTEKJxoEkq8xS">
    <mxGraphModel dx="6970" dy="1660" grid="1" gridSize="10" guides="1" tooltips="1" connect="1" arrows="1" fold="1" page="1" pageScale="1" pageWidth="850" pageHeight="1100" math="0" shadow="0">
      <root>
        <mxCell id="0" />
        <mxCell id="1" parent="0" />
        <mxCell id="gvDfc5tq_xqZOOlfagx1-1" value="&lt;p style=&quot;margin: 4px 0px 0px; text-align: center;&quot;&gt;&lt;span style=&quot;background-color: initial;&quot;&gt;&lt;font&gt;&lt;i&gt;&amp;lt;&amp;lt; interface&amp;nbsp;&amp;gt;&amp;gt;&lt;/i&gt;&lt;/font&gt;&lt;/span&gt;&lt;/p&gt;&lt;p style=&quot;margin: 4px 0px 0px; text-align: center;&quot;&gt;&lt;b&gt;PaymentMode&lt;/b&gt;&lt;/p&gt;&lt;hr style=&quot;border-style: solid;&quot;&gt;&lt;p style=&quot;margin: 0px 0px 0px 4px;&quot;&gt;&lt;font&gt;&lt;br&gt;&lt;/font&gt;&lt;/p&gt;&lt;p style=&quot;margin: 0px 0px 0px 4px;&quot;&gt;&amp;nbsp; &amp;nbsp;&lt;span style=&quot;background-color: transparent;&quot;&gt;&amp;nbsp;&lt;/span&gt;&lt;span style=&quot;background-color: transparent;&quot;&gt;&amp;nbsp;&lt;/span&gt;&lt;span style=&quot;background-color: transparent;&quot;&gt;public boolean makePayment() ;&lt;/span&gt;&lt;/p&gt;" style="verticalAlign=top;align=left;overflow=fill;html=1;whiteSpace=wrap;strokeWidth=2;fontSize=16;fillColor=none;spacing=2;" vertex="1" parent="1">
          <mxGeometry x="-1816" y="1415" width="295" height="140" as="geometry" />
        </mxCell>
        <mxCell id="gvDfc5tq_xqZOOlfagx1-2" style="edgeStyle=orthogonalEdgeStyle;rounded=0;orthogonalLoop=1;jettySize=auto;html=1;entryX=0.25;entryY=1;entryDx=0;entryDy=0;strokeWidth=2;fontSize=16;exitX=0.5;exitY=0;exitDx=0;exitDy=0;" edge="1" parent="1" source="gvDfc5tq_xqZOOlfagx1-11" target="gvDfc5tq_xqZOOlfagx1-1">
          <mxGeometry relative="1" as="geometry">
            <mxPoint x="-1886" y="1675" as="sourcePoint" />
          </mxGeometry>
        </mxCell>
        <mxCell id="gvDfc5tq_xqZOOlfagx1-3" value="extends" style="edgeLabel;html=1;align=center;verticalAlign=middle;resizable=0;points=[];fontSize=16;" vertex="1" connectable="0" parent="gvDfc5tq_xqZOOlfagx1-2">
          <mxGeometry x="-0.0058" y="-1" relative="1" as="geometry">
            <mxPoint as="offset" />
          </mxGeometry>
        </mxCell>
        <mxCell id="gvDfc5tq_xqZOOlfagx1-6" style="edgeStyle=orthogonalEdgeStyle;rounded=0;orthogonalLoop=1;jettySize=auto;html=1;entryX=0.75;entryY=1;entryDx=0;entryDy=0;strokeWidth=2;exitX=0.5;exitY=0;exitDx=0;exitDy=0;fontSize=16;" edge="1" parent="1" source="gvDfc5tq_xqZOOlfagx1-14" target="gvDfc5tq_xqZOOlfagx1-1">
          <mxGeometry relative="1" as="geometry">
            <mxPoint x="-1491" y="1675" as="sourcePoint" />
            <mxPoint x="-1429" y="1505" as="targetPoint" />
          </mxGeometry>
        </mxCell>
        <mxCell id="gvDfc5tq_xqZOOlfagx1-7" value="extends" style="edgeLabel;html=1;align=center;verticalAlign=middle;resizable=0;points=[];fontSize=16;" vertex="1" connectable="0" parent="gvDfc5tq_xqZOOlfagx1-6">
          <mxGeometry x="-0.0058" y="-1" relative="1" as="geometry">
            <mxPoint as="offset" />
          </mxGeometry>
        </mxCell>
        <mxCell id="gvDfc5tq_xqZOOlfagx1-11" value="&lt;p style=&quot;margin: 4px 0px 0px; text-align: center;&quot;&gt;&lt;span style=&quot;background-color: initial;&quot;&gt;&lt;font&gt;&lt;i&gt;&amp;lt;&amp;lt; class &amp;gt;&amp;gt;&lt;/i&gt;&lt;/font&gt;&lt;/span&gt;&lt;/p&gt;&lt;p style=&quot;margin: 4px 0px 0px; text-align: center;&quot;&gt;&lt;b&gt;UPIPaymentMode&lt;/b&gt;&lt;/p&gt;&lt;hr style=&quot;border-style: solid;&quot;&gt;&lt;p style=&quot;margin: 0px 0px 0px 4px;&quot;&gt;&lt;font&gt;&lt;br&gt;&lt;/font&gt;&lt;/p&gt;&lt;p style=&quot;margin: 0px 0px 0px 4px;&quot;&gt;&lt;span style=&quot;background-color: transparent;&quot;&gt;&amp;nbsp; &amp;nbsp; @Override&amp;nbsp;&lt;/span&gt;&lt;/p&gt;&lt;p style=&quot;margin: 0px 0px 0px 4px;&quot;&gt;&lt;span style=&quot;background-color: transparent;&quot;&gt;&amp;nbsp; &amp;nbsp; public boolean makePayment () {&amp;nbsp;&lt;/span&gt;&lt;/p&gt;&lt;p style=&quot;margin: 0px 0px 0px 4px;&quot;&gt;&lt;span style=&quot;background-color: transparent;&quot;&gt;&lt;span style=&quot;white-space: pre;&quot;&gt;&#x9;&lt;/span&gt;return true;&amp;nbsp;&lt;/span&gt;&lt;/p&gt;&lt;p style=&quot;margin: 0px 0px 0px 4px;&quot;&gt;&lt;span style=&quot;background-color: transparent;&quot;&gt;&amp;nbsp; &amp;nbsp; }&lt;/span&gt;&lt;br&gt;&lt;/p&gt;" style="verticalAlign=top;align=left;overflow=fill;html=1;whiteSpace=wrap;strokeWidth=2;fontSize=16;fillColor=none;spacing=2;" vertex="1" parent="1">
          <mxGeometry x="-2016" y="1725" width="310" height="180" as="geometry" />
        </mxCell>
        <mxCell id="gvDfc5tq_xqZOOlfagx1-14" value="&lt;p style=&quot;margin: 4px 0px 0px; text-align: center;&quot;&gt;&lt;span style=&quot;background-color: initial;&quot;&gt;&lt;font&gt;&lt;i&gt;&amp;lt;&amp;lt; class &amp;gt;&amp;gt;&lt;/i&gt;&lt;/font&gt;&lt;/span&gt;&lt;/p&gt;&lt;p style=&quot;margin: 4px 0px 0px; text-align: center;&quot;&gt;&lt;b&gt;CardPaymentMode&lt;/b&gt;&lt;/p&gt;&lt;hr style=&quot;border-style: solid;&quot;&gt;&lt;p style=&quot;margin: 0px 0px 0px 4px;&quot;&gt;&lt;font&gt;&lt;br&gt;&lt;/font&gt;&lt;/p&gt;&lt;p style=&quot;margin: 0px 0px 0px 4px;&quot;&gt;&lt;span style=&quot;background-color: transparent;&quot;&gt;&amp;nbsp; &amp;nbsp; @Override&amp;nbsp;&lt;/span&gt;&lt;/p&gt;&lt;p style=&quot;margin: 0px 0px 0px 4px;&quot;&gt;&lt;span style=&quot;background-color: transparent;&quot;&gt;&amp;nbsp; &amp;nbsp; public boolean makePayment () {&amp;nbsp;&lt;/span&gt;&lt;/p&gt;&lt;p style=&quot;margin: 0px 0px 0px 4px;&quot;&gt;&lt;span style=&quot;background-color: transparent;&quot;&gt;&lt;span style=&quot;white-space: pre;&quot;&gt;&#x9;&lt;/span&gt;return true;&amp;nbsp;&lt;/span&gt;&lt;/p&gt;&lt;p style=&quot;margin: 0px 0px 0px 4px;&quot;&gt;&lt;span style=&quot;background-color: transparent;&quot;&gt;&amp;nbsp; &amp;nbsp; }&lt;/span&gt;&lt;br&gt;&lt;/p&gt;" style="verticalAlign=top;align=left;overflow=fill;html=1;whiteSpace=wrap;strokeWidth=2;fontSize=16;fillColor=none;spacing=2;" vertex="1" parent="1">
          <mxGeometry x="-1626" y="1725" width="310" height="180" as="geometry" />
        </mxCell>
        <mxCell id="gvDfc5tq_xqZOOlfagx1-20" style="edgeStyle=orthogonalEdgeStyle;rounded=0;orthogonalLoop=1;jettySize=auto;html=1;entryX=0.5;entryY=0;entryDx=0;entryDy=0;strokeWidth=2;fontSize=16;" edge="1" parent="1" source="gvDfc5tq_xqZOOlfagx1-17" target="gvDfc5tq_xqZOOlfagx1-19">
          <mxGeometry relative="1" as="geometry" />
        </mxCell>
        <mxCell id="gvDfc5tq_xqZOOlfagx1-76" value="HAS-A" style="edgeLabel;html=1;align=center;verticalAlign=middle;resizable=0;points=[];fontSize=16;" vertex="1" connectable="0" parent="gvDfc5tq_xqZOOlfagx1-20">
          <mxGeometry x="0.0708" y="1" relative="1" as="geometry">
            <mxPoint y="1" as="offset" />
          </mxGeometry>
        </mxCell>
        <mxCell id="gvDfc5tq_xqZOOlfagx1-25" style="edgeStyle=orthogonalEdgeStyle;rounded=0;orthogonalLoop=1;jettySize=auto;html=1;entryX=0;entryY=0.5;entryDx=0;entryDy=0;fontSize=16;strokeWidth=2;" edge="1" parent="1" source="gvDfc5tq_xqZOOlfagx1-17" target="gvDfc5tq_xqZOOlfagx1-21">
          <mxGeometry relative="1" as="geometry" />
        </mxCell>
        <mxCell id="gvDfc5tq_xqZOOlfagx1-75" value="HAS-A" style="edgeLabel;html=1;align=center;verticalAlign=middle;resizable=0;points=[];fontSize=16;" vertex="1" connectable="0" parent="gvDfc5tq_xqZOOlfagx1-25">
          <mxGeometry x="-0.0465" y="-1" relative="1" as="geometry">
            <mxPoint as="offset" />
          </mxGeometry>
        </mxCell>
        <mxCell id="gvDfc5tq_xqZOOlfagx1-17" value="&lt;p style=&quot;margin: 4px 0px 0px; text-align: center;&quot;&gt;&lt;span style=&quot;background-color: initial;&quot;&gt;&lt;font&gt;&lt;i&gt;&amp;lt;&amp;lt; class &amp;gt;&amp;gt;&lt;/i&gt;&lt;/font&gt;&lt;/span&gt;&lt;/p&gt;&lt;p style=&quot;margin: 4px 0px 0px; text-align: center;&quot;&gt;&lt;b&gt;WarehouseController&lt;/b&gt;&lt;/p&gt;&lt;hr style=&quot;border-style: solid;&quot;&gt;&lt;p style=&quot;margin: 0px 0px 0px 4px;&quot;&gt;&lt;font&gt;&lt;br&gt;&lt;/font&gt;&lt;/p&gt;&lt;p style=&quot;margin: 0px 0px 0px 4px;&quot;&gt;&lt;span style=&quot;background-color: transparent;&quot;&gt;&amp;nbsp; &amp;nbsp;&amp;nbsp;&lt;/span&gt;&lt;span style=&quot;background-color: transparent;&quot;&gt;List&amp;lt;Warehouse&amp;gt; warehouseList;&lt;/span&gt;&lt;/p&gt;&lt;p style=&quot;margin: 0px 0px 0px 4px;&quot;&gt;&amp;nbsp; &amp;nbsp; WarehouseSelectionStrategy warehouseSelectionStrategy;&lt;/p&gt;&lt;p style=&quot;margin: 0px 0px 0px 4px;&quot;&gt;&amp;nbsp; &amp;nbsp; ..&lt;/p&gt;&lt;p style=&quot;margin: 0px 0px 0px 4px;&quot;&gt;&amp;nbsp; &amp;nbsp; ..&lt;/p&gt;&lt;p style=&quot;margin: 0px 0px 0px 4px;&quot;&gt;&amp;nbsp; &amp;nbsp;&amp;nbsp;&lt;span style=&quot;background-color: transparent;&quot;&gt;&amp;nbsp;public Warehouse selectWarehouse(&lt;/span&gt;&lt;/p&gt;&lt;p style=&quot;margin: 0px 0px 0px 4px;&quot;&gt;&lt;span style=&quot;background-color: transparent;&quot;&gt;&lt;span style=&quot;white-space: pre;&quot;&gt;&#x9;&lt;/span&gt;&lt;span style=&quot;white-space: pre;&quot;&gt;&#x9;&lt;/span&gt;&lt;span style=&quot;white-space: pre;&quot;&gt;&#x9;&lt;/span&gt;&lt;span style=&quot;white-space: pre;&quot;&gt;&#x9;&lt;/span&gt;WarehouseSelectionStrategy selectionStrategy) {&lt;/span&gt;&lt;/p&gt;&lt;p style=&quot;margin: 0px 0px 0px 4px;&quot;&gt;&amp;nbsp; &amp;nbsp; &amp;nbsp; &amp;nbsp; &amp;nbsp; &amp;nbsp;this.warehouseSelectionStrategy = selectionStrategy;&lt;/p&gt;&lt;p style=&quot;margin: 0px 0px 0px 4px;&quot;&gt;&amp;nbsp; &amp;nbsp; &amp;nbsp; &amp;nbsp; &amp;nbsp; &amp;nbsp;return warehouseSelectionStrategy.selectWarehouse(warehouseList);&lt;/p&gt;&lt;p style=&quot;margin: 0px 0px 0px 4px;&quot;&gt;&amp;nbsp; &amp;nbsp; }&lt;/p&gt;" style="verticalAlign=top;align=left;overflow=fill;html=1;whiteSpace=wrap;strokeWidth=2;fontSize=16;fillColor=none;spacing=2;" vertex="1" parent="1">
          <mxGeometry x="-2436" y="150" width="570" height="280" as="geometry" />
        </mxCell>
        <mxCell id="gvDfc5tq_xqZOOlfagx1-31" style="edgeStyle=orthogonalEdgeStyle;rounded=0;orthogonalLoop=1;jettySize=auto;html=1;fontSize=16;strokeWidth=2;" edge="1" parent="1" source="gvDfc5tq_xqZOOlfagx1-19" target="gvDfc5tq_xqZOOlfagx1-26">
          <mxGeometry relative="1" as="geometry" />
        </mxCell>
        <mxCell id="gvDfc5tq_xqZOOlfagx1-71" value="HAS-A" style="edgeLabel;html=1;align=center;verticalAlign=middle;resizable=0;points=[];fontSize=16;" vertex="1" connectable="0" parent="gvDfc5tq_xqZOOlfagx1-31">
          <mxGeometry x="-0.1685" y="-2" relative="1" as="geometry">
            <mxPoint as="offset" />
          </mxGeometry>
        </mxCell>
        <mxCell id="gvDfc5tq_xqZOOlfagx1-33" style="edgeStyle=orthogonalEdgeStyle;rounded=0;orthogonalLoop=1;jettySize=auto;html=1;entryX=0.5;entryY=0;entryDx=0;entryDy=0;fontSize=16;" edge="1" parent="1" source="gvDfc5tq_xqZOOlfagx1-19" target="gvDfc5tq_xqZOOlfagx1-32">
          <mxGeometry relative="1" as="geometry" />
        </mxCell>
        <mxCell id="gvDfc5tq_xqZOOlfagx1-19" value="&lt;p style=&quot;margin: 4px 0px 0px; text-align: center;&quot;&gt;&lt;span style=&quot;background-color: initial;&quot;&gt;&lt;font&gt;&lt;i&gt;&amp;lt;&amp;lt; class &amp;gt;&amp;gt;&lt;/i&gt;&lt;/font&gt;&lt;/span&gt;&lt;/p&gt;&lt;p style=&quot;margin: 4px 0px 0px; text-align: center;&quot;&gt;&lt;b&gt;Warehouse&lt;/b&gt;&lt;/p&gt;&lt;hr style=&quot;border-style: solid;&quot;&gt;&lt;p style=&quot;margin: 0px 0px 0px 4px;&quot;&gt;&lt;font&gt;&lt;br&gt;&lt;/font&gt;&lt;/p&gt;&lt;p style=&quot;margin: 0px 0px 0px 4px;&quot;&gt;&lt;span style=&quot;background-color: transparent;&quot;&gt;&amp;nbsp; &amp;nbsp;&amp;nbsp;&lt;/span&gt;&lt;span style=&quot;background-color: transparent;&quot;&gt;Inventory inventory;&lt;/span&gt;&lt;/p&gt;&lt;p style=&quot;margin: 0px 0px 0px 4px;&quot;&gt;&amp;nbsp; &amp;nbsp; Address address;&lt;/p&gt;&lt;p style=&quot;margin: 0px 0px 0px 4px;&quot;&gt;&lt;br&gt;&lt;/p&gt;&lt;p style=&quot;margin: 0px 0px 0px 4px;&quot;&gt;&amp;nbsp; &amp;nbsp; void addItemToInventory(&lt;/p&gt;&lt;p style=&quot;margin: 0px 0px 0px 4px;&quot;&gt;&lt;span style=&quot;white-space: pre;&quot;&gt;&#x9;&lt;/span&gt;&lt;span style=&quot;white-space: pre;&quot;&gt;&#x9;&lt;/span&gt;&lt;span style=&quot;white-space: pre;&quot;&gt;&#x9;&lt;/span&gt;&lt;span style=&quot;white-space: pre;&quot;&gt;&#x9;&lt;/span&gt;Map&amp;lt;Integer, Integer&amp;gt; productCategoryAndCountMap&lt;/p&gt;&lt;p style=&quot;margin: 0px 0px 0px 4px;&quot;&gt;&amp;nbsp; &amp;nbsp; )&lt;/p&gt;&lt;p style=&quot;margin: 0px 0px 0px 4px;&quot;&gt;&lt;br&gt;&lt;/p&gt;&lt;p style=&quot;margin: 0px 0px 0px 4px;&quot;&gt;&amp;nbsp; &amp;nbsp; void removeItemFromInventory(&lt;/p&gt;&lt;p style=&quot;margin: 0px 0px 0px 4px;&quot;&gt;&amp;nbsp; &lt;span style=&quot;white-space: pre;&quot;&gt;&#x9;&lt;/span&gt;&lt;span style=&quot;white-space: pre;&quot;&gt;&#x9;&lt;/span&gt;&lt;span style=&quot;white-space: pre;&quot;&gt;&#x9;&lt;/span&gt;&lt;span style=&quot;white-space: pre;&quot;&gt;&#x9;&lt;/span&gt;Map&amp;lt;Integer, Integer&amp;gt; productCategoryAndCountMap&lt;/p&gt;&lt;p style=&quot;margin: 0px 0px 0px 4px;&quot;&gt;&amp;nbsp; &amp;nbsp; )&amp;nbsp;&lt;/p&gt;&lt;div&gt;&lt;br&gt;&lt;/div&gt;&lt;div&gt;&lt;br&gt;&lt;/div&gt;&lt;div&gt;&lt;br&gt;&lt;/div&gt;&lt;div&gt;&lt;br&gt;&lt;/div&gt;" style="verticalAlign=top;align=left;overflow=fill;html=1;whiteSpace=wrap;strokeWidth=2;fontSize=16;fillColor=none;spacing=2;" vertex="1" parent="1">
          <mxGeometry x="-2435" y="630" width="570" height="300" as="geometry" />
        </mxCell>
        <mxCell id="gvDfc5tq_xqZOOlfagx1-21" value="&lt;p style=&quot;margin: 4px 0px 0px; text-align: center;&quot;&gt;&lt;span style=&quot;background-color: initial;&quot;&gt;&lt;font&gt;&lt;i&gt;&amp;lt;&amp;lt; interface&amp;nbsp;&amp;gt;&amp;gt;&lt;/i&gt;&lt;/font&gt;&lt;/span&gt;&lt;/p&gt;&lt;p style=&quot;margin: 4px 0px 0px; text-align: center;&quot;&gt;&lt;b&gt;WarehouseSelectionStrategy&lt;/b&gt;&lt;/p&gt;&lt;hr style=&quot;border-style: solid;&quot;&gt;&lt;p style=&quot;margin: 0px 0px 0px 4px;&quot;&gt;&lt;font&gt;&lt;br&gt;&lt;/font&gt;&lt;/p&gt;&lt;p style=&quot;margin: 0px 0px 0px 4px;&quot;&gt;&amp;nbsp; &amp;nbsp;&lt;span style=&quot;background-color: transparent;&quot;&gt;&amp;nbsp;&lt;/span&gt;&lt;span style=&quot;background-color: transparent;&quot;&gt;&amp;nbsp;&lt;/span&gt;&lt;span style=&quot;background-color: transparent;&quot;&gt;Warehouse selectWarehouse(List&amp;lt;Warehouse&amp;gt; warehouseList);&lt;/span&gt;&lt;/p&gt;" style="verticalAlign=top;align=left;overflow=fill;html=1;whiteSpace=wrap;strokeWidth=2;fontSize=16;fillColor=none;spacing=2;" vertex="1" parent="1">
          <mxGeometry x="-1706" y="220" width="500" height="140" as="geometry" />
        </mxCell>
        <mxCell id="gvDfc5tq_xqZOOlfagx1-22" value="&lt;p style=&quot;margin: 4px 0px 0px; text-align: center;&quot;&gt;&lt;span style=&quot;background-color: initial;&quot;&gt;&lt;font&gt;&lt;i&gt;&amp;lt;&amp;lt; class &amp;gt;&amp;gt;&lt;/i&gt;&lt;/font&gt;&lt;/span&gt;&lt;/p&gt;&lt;p style=&quot;margin: 4px 0px 0px; text-align: center;&quot;&gt;&lt;b&gt;&amp;nbsp;&lt;/b&gt;&lt;span style=&quot;background-color: transparent; text-align: left;&quot;&gt;&lt;b&gt;NearestWarehouseSelectionStrategy&lt;/b&gt;&lt;/span&gt;&lt;/p&gt;&lt;hr style=&quot;border-style: solid;&quot;&gt;&lt;p style=&quot;margin: 0px 0px 0px 4px;&quot;&gt;&lt;font&gt;&lt;br&gt;&lt;/font&gt;&lt;/p&gt;&lt;p style=&quot;margin: 0px 0px 0px 4px;&quot;&gt;&lt;span style=&quot;background-color: transparent;&quot;&gt;&amp;nbsp; &amp;nbsp;&amp;nbsp;&lt;/span&gt;&lt;span style=&quot;background-color: transparent;&quot;&gt;@Override&lt;/span&gt;&lt;/p&gt;&lt;p style=&quot;margin: 0px 0px 0px 4px;&quot;&gt;&amp;nbsp; &amp;nbsp; public Warehouse selectWarehouse(List&amp;lt;Warehouse&amp;gt; warehouseList) {&lt;/p&gt;&lt;p style=&quot;margin: 0px 0px 0px 4px;&quot;&gt;&amp;nbsp; &amp;nbsp; &amp;nbsp; &amp;nbsp; return warehouseList.get(0);&lt;/p&gt;&lt;p style=&quot;margin: 0px 0px 0px 4px;&quot;&gt;&amp;nbsp; &amp;nbsp; }&lt;/p&gt;" style="verticalAlign=top;align=left;overflow=fill;html=1;whiteSpace=wrap;strokeWidth=2;fontSize=16;fillColor=none;spacing=2;" vertex="1" parent="1">
          <mxGeometry x="-1731" y="440" width="550" height="180" as="geometry" />
        </mxCell>
        <mxCell id="gvDfc5tq_xqZOOlfagx1-23" style="edgeStyle=orthogonalEdgeStyle;rounded=0;orthogonalLoop=1;jettySize=auto;html=1;entryX=0.5;entryY=1;entryDx=0;entryDy=0;strokeWidth=2;fontSize=16;" edge="1" parent="1" source="gvDfc5tq_xqZOOlfagx1-22" target="gvDfc5tq_xqZOOlfagx1-21">
          <mxGeometry relative="1" as="geometry">
            <mxPoint x="-1546" y="530" as="sourcePoint" />
            <mxPoint x="-1427" y="450" as="targetPoint" />
          </mxGeometry>
        </mxCell>
        <mxCell id="gvDfc5tq_xqZOOlfagx1-24" value="extends" style="edgeLabel;html=1;align=center;verticalAlign=middle;resizable=0;points=[];fontSize=16;" vertex="1" connectable="0" parent="gvDfc5tq_xqZOOlfagx1-23">
          <mxGeometry x="-0.0058" y="-1" relative="1" as="geometry">
            <mxPoint as="offset" />
          </mxGeometry>
        </mxCell>
        <mxCell id="gvDfc5tq_xqZOOlfagx1-29" style="edgeStyle=orthogonalEdgeStyle;rounded=0;orthogonalLoop=1;jettySize=auto;html=1;fontSize=16;strokeWidth=2;" edge="1" parent="1" source="gvDfc5tq_xqZOOlfagx1-26" target="gvDfc5tq_xqZOOlfagx1-27">
          <mxGeometry relative="1" as="geometry" />
        </mxCell>
        <mxCell id="gvDfc5tq_xqZOOlfagx1-72" value="HAS-A" style="edgeLabel;html=1;align=center;verticalAlign=middle;resizable=0;points=[];fontSize=16;" vertex="1" connectable="0" parent="gvDfc5tq_xqZOOlfagx1-29">
          <mxGeometry x="-0.1794" relative="1" as="geometry">
            <mxPoint as="offset" />
          </mxGeometry>
        </mxCell>
        <mxCell id="gvDfc5tq_xqZOOlfagx1-26" value="&lt;p style=&quot;margin: 4px 0px 0px; text-align: center;&quot;&gt;&lt;span style=&quot;background-color: initial;&quot;&gt;&lt;font&gt;&lt;i&gt;&amp;lt;&amp;lt; class &amp;gt;&amp;gt;&lt;/i&gt;&lt;/font&gt;&lt;/span&gt;&lt;/p&gt;&lt;p style=&quot;margin: 4px 0px 0px; text-align: center;&quot;&gt;&lt;b&gt;Inventory&lt;/b&gt;&lt;/p&gt;&lt;hr style=&quot;border-style: solid;&quot;&gt;&lt;p style=&quot;margin: 0px 0px 0px 4px;&quot;&gt;&lt;font&gt;&lt;br&gt;&lt;/font&gt;&lt;/p&gt;&lt;p style=&quot;margin: 0px 0px 0px 4px;&quot;&gt;&lt;span style=&quot;background-color: transparent;&quot;&gt;&amp;nbsp; &amp;nbsp;&amp;nbsp;&lt;/span&gt;&lt;span style=&quot;background-color: transparent;&quot;&gt;&amp;nbsp;List&amp;lt;ProductCategory&amp;gt; productCategoryList;&lt;/span&gt;&lt;/p&gt;&lt;div&gt;&lt;span style=&quot;background-color: transparent; color: light-dark(rgb(0, 0, 0), rgb(255, 255, 255));&quot;&gt;&lt;br&gt;&lt;/span&gt;&lt;/div&gt;&lt;div&gt;&lt;br&gt;&lt;/div&gt;&lt;div&gt;&lt;br&gt;&lt;/div&gt;&lt;div&gt;&lt;br&gt;&lt;/div&gt;&lt;div&gt;&lt;br&gt;&lt;/div&gt;" style="verticalAlign=top;align=left;overflow=fill;html=1;whiteSpace=wrap;strokeWidth=2;fontSize=16;fillColor=none;spacing=2;" vertex="1" parent="1">
          <mxGeometry x="-1720" y="715" width="380" height="130" as="geometry" />
        </mxCell>
        <mxCell id="gvDfc5tq_xqZOOlfagx1-30" style="edgeStyle=orthogonalEdgeStyle;rounded=0;orthogonalLoop=1;jettySize=auto;html=1;entryX=0;entryY=0.5;entryDx=0;entryDy=0;fontSize=16;strokeWidth=2;" edge="1" parent="1" source="gvDfc5tq_xqZOOlfagx1-27" target="gvDfc5tq_xqZOOlfagx1-28">
          <mxGeometry relative="1" as="geometry" />
        </mxCell>
        <mxCell id="gvDfc5tq_xqZOOlfagx1-73" value="HAS-A" style="edgeLabel;html=1;align=center;verticalAlign=middle;resizable=0;points=[];fontSize=16;" vertex="1" connectable="0" parent="gvDfc5tq_xqZOOlfagx1-30">
          <mxGeometry x="-0.1105" y="-3" relative="1" as="geometry">
            <mxPoint y="-3" as="offset" />
          </mxGeometry>
        </mxCell>
        <mxCell id="gvDfc5tq_xqZOOlfagx1-27" value="&lt;p style=&quot;margin: 4px 0px 0px; text-align: center;&quot;&gt;&lt;span style=&quot;background-color: initial;&quot;&gt;&lt;font&gt;&lt;i&gt;&amp;lt;&amp;lt; class &amp;gt;&amp;gt;&lt;/i&gt;&lt;/font&gt;&lt;/span&gt;&lt;/p&gt;&lt;p style=&quot;margin: 4px 0px 0px; text-align: center;&quot;&gt;&lt;b&gt;ProductCategory&lt;/b&gt;&lt;/p&gt;&lt;hr style=&quot;border-style: solid;&quot;&gt;&lt;p style=&quot;margin: 0px 0px 0px 4px;&quot;&gt;&lt;font&gt;&lt;br&gt;&lt;/font&gt;&lt;/p&gt;&lt;p style=&quot;margin: 0px 0px 0px 4px;&quot;&gt;&amp;nbsp; &amp;nbsp;&amp;nbsp;&lt;span style=&quot;background-color: transparent;&quot;&gt;int productCategoryId;&lt;/span&gt;&lt;/p&gt;&lt;p style=&quot;margin: 0px 0px 0px 4px;&quot;&gt;&amp;nbsp; &amp;nbsp; String categoryName;&lt;/p&gt;&lt;p style=&quot;margin: 0px 0px 0px 4px;&quot;&gt;&amp;nbsp; &amp;nbsp; List&amp;lt;Product&amp;gt; products;&lt;/p&gt;&lt;p style=&quot;margin: 0px 0px 0px 4px;&quot;&gt;&amp;nbsp; &amp;nbsp; double price;&lt;/p&gt;&lt;p style=&quot;margin: 0px 0px 0px 4px;&quot;&gt;&lt;br&gt;&lt;/p&gt;&lt;p style=&quot;margin: 0px 0px 0px 4px;&quot;&gt;&amp;nbsp; &amp;nbsp; public void addProduct(Product product)&lt;/p&gt;&lt;p style=&quot;margin: 0px 0px 0px 4px;&quot;&gt;&lt;br&gt;&lt;/p&gt;&lt;p style=&quot;margin: 0px 0px 0px 4px;&quot;&gt;&amp;nbsp; &amp;nbsp;&amp;nbsp;&lt;span style=&quot;background-color: transparent;&quot;&gt;public void removeProduct(int count)&amp;nbsp;&lt;/span&gt;&lt;/p&gt;" style="verticalAlign=top;align=left;overflow=fill;html=1;whiteSpace=wrap;strokeWidth=2;fontSize=16;fillColor=none;spacing=2;" vertex="1" parent="1">
          <mxGeometry x="-1705" y="965" width="350" height="270" as="geometry" />
        </mxCell>
        <mxCell id="gvDfc5tq_xqZOOlfagx1-28" value="&lt;p style=&quot;margin: 4px 0px 0px; text-align: center;&quot;&gt;&lt;span style=&quot;background-color: initial;&quot;&gt;&lt;font&gt;&lt;i&gt;&amp;lt;&amp;lt; class &amp;gt;&amp;gt;&lt;/i&gt;&lt;/font&gt;&lt;/span&gt;&lt;/p&gt;&lt;p style=&quot;margin: 4px 0px 0px; text-align: center;&quot;&gt;&lt;b&gt;Product&lt;/b&gt;&lt;/p&gt;&lt;hr style=&quot;border-style: solid;&quot;&gt;&lt;p style=&quot;margin: 0px 0px 0px 4px;&quot;&gt;&lt;font&gt;&lt;br&gt;&lt;/font&gt;&lt;/p&gt;&lt;p style=&quot;margin: 0px 0px 0px 4px;&quot;&gt;&lt;span style=&quot;background-color: transparent;&quot;&gt;&amp;nbsp; &amp;nbsp;&amp;nbsp;&lt;/span&gt;&lt;span style=&quot;background-color: transparent;&quot;&gt;int productId;&lt;/span&gt;&lt;/p&gt;&lt;p style=&quot;margin: 0px 0px 0px 4px;&quot;&gt;&amp;nbsp; &amp;nbsp; String productName;&lt;/p&gt;" style="verticalAlign=top;align=left;overflow=fill;html=1;whiteSpace=wrap;strokeWidth=2;fontSize=16;fillColor=none;spacing=2;" vertex="1" parent="1">
          <mxGeometry x="-1160" y="1025" width="210" height="150" as="geometry" />
        </mxCell>
        <mxCell id="gvDfc5tq_xqZOOlfagx1-32" value="&lt;p style=&quot;margin: 4px 0px 0px; text-align: center;&quot;&gt;&lt;span style=&quot;background-color: initial;&quot;&gt;&lt;font&gt;&lt;i&gt;&amp;lt;&amp;lt; class &amp;gt;&amp;gt;&lt;/i&gt;&lt;/font&gt;&lt;/span&gt;&lt;/p&gt;&lt;p style=&quot;margin: 4px 0px 0px; text-align: center;&quot;&gt;&lt;b&gt;Address&lt;/b&gt;&lt;/p&gt;&lt;hr style=&quot;border-style: solid;&quot;&gt;&lt;p style=&quot;margin: 0px 0px 0px 4px;&quot;&gt;&lt;font&gt;&lt;br&gt;&lt;/font&gt;&lt;/p&gt;&lt;p style=&quot;margin: 0px 0px 0px 4px;&quot;&gt;&lt;span style=&quot;background-color: transparent;&quot;&gt;&amp;nbsp; &amp;nbsp;&amp;nbsp;&lt;/span&gt;&lt;span style=&quot;background-color: transparent;&quot;&gt;int addressId;&lt;/span&gt;&lt;/p&gt;&lt;p style=&quot;margin: 0px 0px 0px 4px;&quot;&gt;&amp;nbsp; &amp;nbsp; int pinCode;&lt;/p&gt;&lt;p style=&quot;margin: 0px 0px 0px 4px;&quot;&gt;&amp;nbsp; &amp;nbsp; String city;&lt;/p&gt;&lt;p style=&quot;margin: 0px 0px 0px 4px;&quot;&gt;&amp;nbsp; &amp;nbsp; String state;&lt;/p&gt;" style="verticalAlign=top;align=left;overflow=fill;html=1;whiteSpace=wrap;strokeWidth=2;fontSize=16;fillColor=none;spacing=2;" vertex="1" parent="1">
          <mxGeometry x="-2230" y="1010" width="160" height="180" as="geometry" />
        </mxCell>
        <mxCell id="gvDfc5tq_xqZOOlfagx1-36" style="edgeStyle=orthogonalEdgeStyle;rounded=0;orthogonalLoop=1;jettySize=auto;html=1;entryX=0.5;entryY=0;entryDx=0;entryDy=0;fontSize=16;strokeWidth=2;" edge="1" parent="1" source="gvDfc5tq_xqZOOlfagx1-34" target="gvDfc5tq_xqZOOlfagx1-35">
          <mxGeometry relative="1" as="geometry" />
        </mxCell>
        <mxCell id="gvDfc5tq_xqZOOlfagx1-60" value="HAS-A" style="edgeLabel;html=1;align=center;verticalAlign=middle;resizable=0;points=[];fontSize=16;" vertex="1" connectable="0" parent="gvDfc5tq_xqZOOlfagx1-36">
          <mxGeometry x="-0.04" relative="1" as="geometry">
            <mxPoint y="-1" as="offset" />
          </mxGeometry>
        </mxCell>
        <mxCell id="gvDfc5tq_xqZOOlfagx1-34" value="&lt;p style=&quot;margin: 4px 0px 0px; text-align: center;&quot;&gt;&lt;span style=&quot;background-color: initial;&quot;&gt;&lt;font&gt;&lt;i&gt;&amp;lt;&amp;lt; class &amp;gt;&amp;gt;&lt;/i&gt;&lt;/font&gt;&lt;/span&gt;&lt;/p&gt;&lt;p style=&quot;margin: 4px 0px 0px; text-align: center;&quot;&gt;&lt;b&gt;UserController&lt;/b&gt;&lt;/p&gt;&lt;hr style=&quot;border-style: solid;&quot;&gt;&lt;p style=&quot;margin: 0px 0px 0px 4px;&quot;&gt;&lt;font&gt;&lt;br&gt;&lt;/font&gt;&lt;/p&gt;&lt;p style=&quot;margin: 0px 0px 0px 4px;&quot;&gt;&amp;nbsp; &amp;nbsp; &amp;nbsp;List&amp;lt;User&amp;gt; userList;&lt;/p&gt;&lt;p style=&quot;margin: 0px 0px 0px 4px;&quot;&gt;&lt;br&gt;&lt;/p&gt;&lt;p style=&quot;margin: 0px 0px 0px 4px;&quot;&gt;&amp;nbsp; &amp;nbsp; &amp;nbsp;public User getUser(int userId) {&lt;/p&gt;&lt;p style=&quot;margin: 0px 0px 0px 4px;&quot;&gt;&amp;nbsp; &amp;nbsp; &amp;nbsp;&lt;/p&gt;&lt;p style=&quot;margin: 0px 0px 0px 4px;&quot;&gt;&amp;nbsp; &amp;nbsp; &amp;nbsp;}&lt;/p&gt;" style="verticalAlign=top;align=left;overflow=fill;html=1;whiteSpace=wrap;strokeWidth=2;fontSize=16;fillColor=none;spacing=2;" vertex="1" parent="1">
          <mxGeometry x="-3670" y="560" width="280" height="200" as="geometry" />
        </mxCell>
        <mxCell id="gvDfc5tq_xqZOOlfagx1-38" style="edgeStyle=orthogonalEdgeStyle;rounded=0;orthogonalLoop=1;jettySize=auto;html=1;entryX=0.5;entryY=0;entryDx=0;entryDy=0;fontSize=16;strokeWidth=2;" edge="1" parent="1" source="gvDfc5tq_xqZOOlfagx1-35" target="gvDfc5tq_xqZOOlfagx1-37">
          <mxGeometry relative="1" as="geometry" />
        </mxCell>
        <mxCell id="gvDfc5tq_xqZOOlfagx1-61" value="HAS-A" style="edgeLabel;html=1;align=center;verticalAlign=middle;resizable=0;points=[];fontSize=16;" vertex="1" connectable="0" parent="gvDfc5tq_xqZOOlfagx1-38">
          <mxGeometry x="0.0262" y="1" relative="1" as="geometry">
            <mxPoint as="offset" />
          </mxGeometry>
        </mxCell>
        <mxCell id="gvDfc5tq_xqZOOlfagx1-35" value="&lt;p style=&quot;margin: 4px 0px 0px; text-align: center;&quot;&gt;&lt;span style=&quot;background-color: initial;&quot;&gt;&lt;font&gt;&lt;i&gt;&amp;lt;&amp;lt; class &amp;gt;&amp;gt;&lt;/i&gt;&lt;/font&gt;&lt;/span&gt;&lt;/p&gt;&lt;p style=&quot;margin: 4px 0px 0px; text-align: center;&quot;&gt;&lt;b&gt;User&lt;/b&gt;&lt;/p&gt;&lt;hr style=&quot;border-style: solid;&quot;&gt;&lt;p style=&quot;margin: 0px 0px 0px 4px;&quot;&gt;&lt;font&gt;&lt;br&gt;&lt;/font&gt;&lt;/p&gt;&lt;p style=&quot;margin: 0px 0px 0px 4px;&quot;&gt;&amp;nbsp; &amp;nbsp; &lt;span style=&quot;background-color: transparent;&quot;&gt;int userId;&lt;/span&gt;&lt;/p&gt;&lt;p style=&quot;margin: 0px 0px 0px 4px;&quot;&gt;&amp;nbsp; &amp;nbsp; String userName;&lt;/p&gt;&lt;p style=&quot;margin: 0px 0px 0px 4px;&quot;&gt;&amp;nbsp; &amp;nbsp; Address address;&lt;/p&gt;&lt;p style=&quot;margin: 0px 0px 0px 4px;&quot;&gt;&amp;nbsp; &amp;nbsp; Cart userCartDetails;&lt;/p&gt;&lt;p style=&quot;margin: 0px 0px 0px 4px;&quot;&gt;&amp;nbsp; &amp;nbsp; List&amp;lt;Integer&amp;gt; orderIds;&lt;/p&gt;&lt;div&gt;&lt;br&gt;&lt;/div&gt;" style="verticalAlign=top;align=left;overflow=fill;html=1;whiteSpace=wrap;strokeWidth=2;fontSize=16;fillColor=none;spacing=2;" vertex="1" parent="1">
          <mxGeometry x="-3630" y="860" width="200" height="200" as="geometry" />
        </mxCell>
        <mxCell id="gvDfc5tq_xqZOOlfagx1-37" value="&lt;p style=&quot;margin: 4px 0px 0px; text-align: center;&quot;&gt;&lt;span style=&quot;background-color: initial;&quot;&gt;&lt;font&gt;&lt;i&gt;&amp;lt;&amp;lt; class &amp;gt;&amp;gt;&lt;/i&gt;&lt;/font&gt;&lt;/span&gt;&lt;/p&gt;&lt;p style=&quot;margin: 4px 0px 0px; text-align: center;&quot;&gt;&lt;b&gt;Cart&lt;/b&gt;&lt;/p&gt;&lt;hr style=&quot;border-style: solid;&quot;&gt;&lt;p style=&quot;margin: 0px 0px 0px 4px;&quot;&gt;&lt;font&gt;&lt;br&gt;&lt;/font&gt;&lt;/p&gt;&lt;p style=&quot;margin: 0px 0px 0px 4px;&quot;&gt;&amp;nbsp; &amp;nbsp; Map&amp;lt;Integer, Integer&amp;gt; productCategoryIdVsCountMap;&lt;/p&gt;&lt;p style=&quot;margin: 0px 0px 0px 4px;&quot;&gt;&lt;br&gt;&lt;/p&gt;&lt;p style=&quot;margin: 0px 0px 0px 4px;&quot;&gt;&amp;nbsp; &amp;nbsp; void addItemInCart(int productCategoryId, int count)&lt;/p&gt;&lt;p style=&quot;margin: 0px 0px 0px 4px;&quot;&gt;&lt;br&gt;&lt;/p&gt;&lt;p style=&quot;margin: 0px 0px 0px 4px;&quot;&gt;&amp;nbsp; &amp;nbsp; void removeItemFromCart(int productCategoryId, int count)&amp;nbsp;&lt;/p&gt;&lt;p style=&quot;margin: 0px 0px 0px 4px;&quot;&gt;&lt;br&gt;&lt;/p&gt;&lt;p style=&quot;margin: 0px 0px 0px 4px;&quot;&gt;&amp;nbsp; &amp;nbsp; void emptyCart()&amp;nbsp;&lt;/p&gt;" style="verticalAlign=top;align=left;overflow=fill;html=1;whiteSpace=wrap;strokeWidth=2;fontSize=16;fillColor=none;spacing=2;" vertex="1" parent="1">
          <mxGeometry x="-3765" y="1180" width="470" height="250" as="geometry" />
        </mxCell>
        <mxCell id="gvDfc5tq_xqZOOlfagx1-39" style="edgeStyle=orthogonalEdgeStyle;rounded=0;orthogonalLoop=1;jettySize=auto;html=1;exitX=0.75;exitY=1;exitDx=0;exitDy=0;fontSize=16;strokeWidth=2;" edge="1" source="gvDfc5tq_xqZOOlfagx1-40" target="gvDfc5tq_xqZOOlfagx1-42" parent="1">
          <mxGeometry relative="1" as="geometry" />
        </mxCell>
        <mxCell id="gvDfc5tq_xqZOOlfagx1-67" value="HAS-A" style="edgeLabel;html=1;align=center;verticalAlign=middle;resizable=0;points=[];fontSize=16;" vertex="1" connectable="0" parent="gvDfc5tq_xqZOOlfagx1-39">
          <mxGeometry x="-0.1041" y="2" relative="1" as="geometry">
            <mxPoint y="-1" as="offset" />
          </mxGeometry>
        </mxCell>
        <mxCell id="gvDfc5tq_xqZOOlfagx1-48" style="edgeStyle=orthogonalEdgeStyle;rounded=0;orthogonalLoop=1;jettySize=auto;html=1;entryX=0.5;entryY=0;entryDx=0;entryDy=0;exitX=0.25;exitY=1;exitDx=0;exitDy=0;fontSize=16;strokeWidth=2;" edge="1" parent="1" source="gvDfc5tq_xqZOOlfagx1-40" target="gvDfc5tq_xqZOOlfagx1-45">
          <mxGeometry relative="1" as="geometry" />
        </mxCell>
        <mxCell id="gvDfc5tq_xqZOOlfagx1-68" value="HAS-A" style="edgeLabel;html=1;align=center;verticalAlign=middle;resizable=0;points=[];fontSize=16;" vertex="1" connectable="0" parent="gvDfc5tq_xqZOOlfagx1-48">
          <mxGeometry x="-0.1648" y="1" relative="1" as="geometry">
            <mxPoint y="-1" as="offset" />
          </mxGeometry>
        </mxCell>
        <mxCell id="gvDfc5tq_xqZOOlfagx1-49" style="edgeStyle=orthogonalEdgeStyle;rounded=0;orthogonalLoop=1;jettySize=auto;html=1;entryX=0;entryY=0.5;entryDx=0;entryDy=0;exitX=1;exitY=0.25;exitDx=0;exitDy=0;fontSize=16;strokeWidth=2;" edge="1" parent="1" source="gvDfc5tq_xqZOOlfagx1-40" target="gvDfc5tq_xqZOOlfagx1-19">
          <mxGeometry relative="1" as="geometry" />
        </mxCell>
        <mxCell id="gvDfc5tq_xqZOOlfagx1-64" value="HAS-A" style="edgeLabel;html=1;align=center;verticalAlign=middle;resizable=0;points=[];fontSize=16;" vertex="1" connectable="0" parent="gvDfc5tq_xqZOOlfagx1-49">
          <mxGeometry x="0.085" y="1" relative="1" as="geometry">
            <mxPoint as="offset" />
          </mxGeometry>
        </mxCell>
        <mxCell id="gvDfc5tq_xqZOOlfagx1-56" style="edgeStyle=orthogonalEdgeStyle;rounded=0;orthogonalLoop=1;jettySize=auto;html=1;entryX=0;entryY=0.5;entryDx=0;entryDy=0;exitX=1;exitY=0.75;exitDx=0;exitDy=0;fontSize=16;strokeWidth=2;" edge="1" parent="1" source="gvDfc5tq_xqZOOlfagx1-40" target="gvDfc5tq_xqZOOlfagx1-43">
          <mxGeometry relative="1" as="geometry" />
        </mxCell>
        <mxCell id="gvDfc5tq_xqZOOlfagx1-66" value="HAS-A" style="edgeLabel;html=1;align=center;verticalAlign=middle;resizable=0;points=[];fontSize=16;" vertex="1" connectable="0" parent="gvDfc5tq_xqZOOlfagx1-56">
          <mxGeometry x="-0.197" relative="1" as="geometry">
            <mxPoint as="offset" />
          </mxGeometry>
        </mxCell>
        <mxCell id="gvDfc5tq_xqZOOlfagx1-57" style="edgeStyle=orthogonalEdgeStyle;rounded=0;orthogonalLoop=1;jettySize=auto;html=1;entryX=0;entryY=0.5;entryDx=0;entryDy=0;exitX=1;exitY=0.5;exitDx=0;exitDy=0;fontSize=16;strokeWidth=2;" edge="1" parent="1" source="gvDfc5tq_xqZOOlfagx1-40" target="gvDfc5tq_xqZOOlfagx1-32">
          <mxGeometry relative="1" as="geometry">
            <mxPoint x="-2360" y="1750" as="sourcePoint" />
          </mxGeometry>
        </mxCell>
        <mxCell id="gvDfc5tq_xqZOOlfagx1-65" value="HAS-A" style="edgeLabel;html=1;align=center;verticalAlign=middle;resizable=0;points=[];fontSize=16;" vertex="1" connectable="0" parent="gvDfc5tq_xqZOOlfagx1-57">
          <mxGeometry x="0.6698" relative="1" as="geometry">
            <mxPoint as="offset" />
          </mxGeometry>
        </mxCell>
        <mxCell id="gvDfc5tq_xqZOOlfagx1-58" style="edgeStyle=orthogonalEdgeStyle;rounded=0;orthogonalLoop=1;jettySize=auto;html=1;entryX=1;entryY=0.5;entryDx=0;entryDy=0;exitX=0;exitY=0.5;exitDx=0;exitDy=0;fontSize=16;strokeWidth=2;" edge="1" parent="1" source="gvDfc5tq_xqZOOlfagx1-40" target="gvDfc5tq_xqZOOlfagx1-34">
          <mxGeometry relative="1" as="geometry">
            <Array as="points">
              <mxPoint x="-3220" y="1398" />
              <mxPoint x="-3220" y="660" />
            </Array>
          </mxGeometry>
        </mxCell>
        <mxCell id="gvDfc5tq_xqZOOlfagx1-62" value="HAS-A" style="edgeLabel;html=1;align=center;verticalAlign=middle;resizable=0;points=[];fontSize=16;" vertex="1" connectable="0" parent="gvDfc5tq_xqZOOlfagx1-58">
          <mxGeometry x="0.0664" relative="1" as="geometry">
            <mxPoint as="offset" />
          </mxGeometry>
        </mxCell>
        <mxCell id="gvDfc5tq_xqZOOlfagx1-40" value="&lt;p style=&quot;margin: 4px 0px 0px; text-align: center;&quot;&gt;&lt;span style=&quot;background-color: initial;&quot;&gt;&lt;font&gt;&lt;i&gt;&amp;lt;&amp;lt; class &amp;gt;&amp;gt;&lt;/i&gt;&lt;/font&gt;&lt;/span&gt;&lt;/p&gt;&lt;p style=&quot;margin: 4px 0px 0px; text-align: center;&quot;&gt;&lt;b&gt;Order&lt;/b&gt;&lt;/p&gt;&lt;hr style=&quot;border-style: solid;&quot;&gt;&lt;p style=&quot;margin: 0px 0px 0px 4px;&quot;&gt;&lt;font&gt;&lt;br&gt;&lt;/font&gt;&lt;/p&gt;&lt;p style=&quot;margin: 0px 0px 0px 4px;&quot;&gt;&amp;nbsp; &amp;nbsp; User user;&lt;/p&gt;&lt;p style=&quot;margin: 0px 0px 0px 4px;&quot;&gt;&amp;nbsp; &amp;nbsp; Address deliveryAddress;&lt;/p&gt;&lt;p style=&quot;margin: 0px 0px 0px 4px;&quot;&gt;&amp;nbsp; &amp;nbsp; Map&amp;lt;Integer, Integer&amp;gt; productCategoryAndCountMap;&lt;/p&gt;&lt;p style=&quot;margin: 0px 0px 0px 4px;&quot;&gt;&amp;nbsp; &amp;nbsp; Warehouse warehouse;&lt;/p&gt;&lt;p style=&quot;margin: 0px 0px 0px 4px;&quot;&gt;&amp;nbsp; &amp;nbsp; Invoice invoice;&lt;/p&gt;&lt;p style=&quot;margin: 0px 0px 0px 4px;&quot;&gt;&amp;nbsp; &amp;nbsp; Payment payment;&lt;/p&gt;&lt;p style=&quot;margin: 0px 0px 0px 4px;&quot;&gt;&amp;nbsp; &amp;nbsp; OrderStatus orderStatus;&lt;/p&gt;&lt;p style=&quot;margin: 0px 0px 0px 4px;&quot;&gt;&lt;br&gt;&lt;/p&gt;&lt;p style=&quot;margin: 0px 0px 0px 4px;&quot;&gt;&lt;span style=&quot;background-color: transparent; color: light-dark(rgb(0, 0, 0), rgb(255, 255, 255));&quot;&gt;&amp;nbsp; &amp;nbsp;&lt;/span&gt;&lt;span style=&quot;background-color: transparent; color: light-dark(rgb(0, 0, 0), rgb(255, 255, 255));&quot;&gt;&amp;nbsp;&lt;/span&gt;void checkout()&lt;/p&gt;&lt;p style=&quot;margin: 0px 0px 0px 4px;&quot;&gt;&lt;br&gt;&lt;/p&gt;&lt;p style=&quot;margin: 0px 0px 0px 4px;&quot;&gt;&lt;span style=&quot;background-color: transparent; color: light-dark(rgb(0, 0, 0), rgb(255, 255, 255));&quot;&gt;&amp;nbsp; &amp;nbsp;&lt;/span&gt;&lt;span style=&quot;background-color: transparent; color: light-dark(rgb(0, 0, 0), rgb(255, 255, 255));&quot;&gt;&amp;nbsp;&lt;/span&gt;boolean makePayment(PaymentMode paymentMode)&lt;/p&gt;&lt;p style=&quot;margin: 0px 0px 0px 4px;&quot;&gt;&lt;br&gt;&lt;/p&gt;&lt;p style=&quot;margin: 0px 0px 0px 4px;&quot;&gt;&amp;nbsp; &amp;nbsp; void generateOrderInvoice()&lt;/p&gt;" style="verticalAlign=top;align=left;overflow=fill;html=1;whiteSpace=wrap;strokeWidth=2;fontSize=16;fillColor=none;spacing=2;" vertex="1" parent="1">
          <mxGeometry x="-3110" y="1220" width="440" height="355" as="geometry" />
        </mxCell>
        <mxCell id="gvDfc5tq_xqZOOlfagx1-42" value="&lt;p style=&quot;margin: 4px 0px 0px; text-align: center;&quot;&gt;&lt;span style=&quot;background-color: initial;&quot;&gt;&lt;font&gt;&lt;i&gt;&amp;lt;&amp;lt; class &amp;gt;&amp;gt;&lt;/i&gt;&lt;/font&gt;&lt;/span&gt;&lt;/p&gt;&lt;p style=&quot;margin: 4px 0px 0px; text-align: center;&quot;&gt;&lt;b&gt;Invoice&lt;/b&gt;&lt;/p&gt;&lt;hr style=&quot;border-style: solid;&quot;&gt;&lt;p style=&quot;margin: 0px 0px 0px 4px;&quot;&gt;&lt;font&gt;&lt;br&gt;&lt;/font&gt;&lt;/p&gt;&lt;p style=&quot;margin: 0px 0px 0px 4px;&quot;&gt;&amp;nbsp; &amp;nbsp; int totalItemPrice;&lt;/p&gt;&lt;p style=&quot;margin: 0px 0px 0px 4px;&quot;&gt;&amp;nbsp; &amp;nbsp; int totalTax;&lt;/p&gt;&lt;p style=&quot;margin: 0px 0px 0px 4px;&quot;&gt;&amp;nbsp; &amp;nbsp; int totalFinalPrice;&lt;/p&gt;" style="verticalAlign=top;align=left;overflow=fill;html=1;whiteSpace=wrap;strokeWidth=2;fontSize=16;fillColor=none;spacing=2;" vertex="1" parent="1">
          <mxGeometry x="-2880" y="1730" width="200" height="165" as="geometry" />
        </mxCell>
        <mxCell id="gvDfc5tq_xqZOOlfagx1-47" style="edgeStyle=orthogonalEdgeStyle;rounded=0;orthogonalLoop=1;jettySize=auto;html=1;fontSize=16;strokeWidth=2;" edge="1" parent="1" source="gvDfc5tq_xqZOOlfagx1-43" target="gvDfc5tq_xqZOOlfagx1-1">
          <mxGeometry relative="1" as="geometry" />
        </mxCell>
        <mxCell id="gvDfc5tq_xqZOOlfagx1-70" value="HAS-A" style="edgeLabel;html=1;align=center;verticalAlign=middle;resizable=0;points=[];fontSize=16;" vertex="1" connectable="0" parent="gvDfc5tq_xqZOOlfagx1-47">
          <mxGeometry x="-0.0782" y="-1" relative="1" as="geometry">
            <mxPoint as="offset" />
          </mxGeometry>
        </mxCell>
        <mxCell id="gvDfc5tq_xqZOOlfagx1-43" value="&lt;p style=&quot;margin: 4px 0px 0px; text-align: center;&quot;&gt;&lt;span style=&quot;background-color: initial;&quot;&gt;&lt;font&gt;&lt;i&gt;&amp;lt;&amp;lt; class &amp;gt;&amp;gt;&lt;/i&gt;&lt;/font&gt;&lt;/span&gt;&lt;/p&gt;&lt;p style=&quot;margin: 4px 0px 0px; text-align: center;&quot;&gt;&lt;b&gt;Payment&lt;/b&gt;&lt;/p&gt;&lt;hr style=&quot;border-style: solid;&quot;&gt;&lt;p style=&quot;margin: 0px 0px 0px 4px;&quot;&gt;&lt;font&gt;&lt;br&gt;&lt;/font&gt;&lt;/p&gt;&lt;p style=&quot;margin: 0px 0px 0px 4px;&quot;&gt;&lt;span style=&quot;background-color: transparent; color: light-dark(rgb(0, 0, 0), rgb(255, 255, 255));&quot;&gt;&amp;nbsp; &amp;nbsp;&lt;/span&gt;&lt;span style=&quot;background-color: transparent; color: light-dark(rgb(0, 0, 0), rgb(255, 255, 255));&quot;&gt;&amp;nbsp;&lt;/span&gt;PaymentMode paymentMode;&lt;/p&gt;&lt;p style=&quot;margin: 0px 0px 0px 4px;&quot;&gt;&lt;br&gt;&lt;/p&gt;&lt;p style=&quot;margin: 0px 0px 0px 4px;&quot;&gt;&amp;nbsp; &amp;nbsp; boolean makePayment()&amp;nbsp;&lt;/p&gt;" style="verticalAlign=top;align=left;overflow=fill;html=1;whiteSpace=wrap;strokeWidth=2;fontSize=16;fillColor=none;spacing=2;" vertex="1" parent="1">
          <mxGeometry x="-2285" y="1400" width="270" height="170" as="geometry" />
        </mxCell>
        <mxCell id="gvDfc5tq_xqZOOlfagx1-46" style="edgeStyle=orthogonalEdgeStyle;rounded=0;orthogonalLoop=1;jettySize=auto;html=1;entryX=0.5;entryY=0;entryDx=0;entryDy=0;fontSize=16;strokeWidth=2;" edge="1" parent="1" source="gvDfc5tq_xqZOOlfagx1-44" target="gvDfc5tq_xqZOOlfagx1-40">
          <mxGeometry relative="1" as="geometry">
            <mxPoint x="-2620" y="1760" as="targetPoint" />
          </mxGeometry>
        </mxCell>
        <mxCell id="gvDfc5tq_xqZOOlfagx1-63" value="HAS-A" style="edgeLabel;html=1;align=center;verticalAlign=middle;resizable=0;points=[];fontSize=16;" vertex="1" connectable="0" parent="gvDfc5tq_xqZOOlfagx1-46">
          <mxGeometry x="-0.1015" relative="1" as="geometry">
            <mxPoint y="-1" as="offset" />
          </mxGeometry>
        </mxCell>
        <mxCell id="gvDfc5tq_xqZOOlfagx1-44" value="&lt;p style=&quot;margin: 4px 0px 0px; text-align: center;&quot;&gt;&lt;span style=&quot;background-color: initial;&quot;&gt;&lt;font&gt;&lt;i&gt;&amp;lt;&amp;lt; class &amp;gt;&amp;gt;&lt;/i&gt;&lt;/font&gt;&lt;/span&gt;&lt;/p&gt;&lt;p style=&quot;margin: 4px 0px 0px; text-align: center;&quot;&gt;&lt;b&gt;OrderController&lt;/b&gt;&lt;/p&gt;&lt;hr style=&quot;border-style: solid;&quot;&gt;&lt;p style=&quot;margin: 0px 0px 0px 4px;&quot;&gt;&lt;font&gt;&lt;br&gt;&lt;/font&gt;&lt;/p&gt;&lt;p style=&quot;margin: 0px 0px 0px 4px;&quot;&gt;&amp;nbsp; &amp;nbsp; &lt;span style=&quot;background-color: transparent;&quot;&gt;List&amp;lt;Order&amp;gt; orderList;&lt;/span&gt;&lt;/p&gt;&lt;p style=&quot;margin: 0px 0px 0px 4px;&quot;&gt;&amp;nbsp; &amp;nbsp; Map&amp;lt;Integer, List&amp;lt;Order&amp;gt;&amp;gt; userIDVsOrders;&lt;/p&gt;" style="verticalAlign=top;align=left;overflow=fill;html=1;whiteSpace=wrap;strokeWidth=2;fontSize=16;fillColor=none;spacing=2;" vertex="1" parent="1">
          <mxGeometry x="-3070" y="920" width="360" height="155" as="geometry" />
        </mxCell>
        <mxCell id="gvDfc5tq_xqZOOlfagx1-45" value="&lt;p style=&quot;margin: 4px 0px 0px; text-align: center;&quot;&gt;&lt;span style=&quot;background-color: initial;&quot;&gt;&lt;font&gt;&lt;i&gt;&amp;lt;&amp;lt; enum &amp;gt;&amp;gt;&lt;/i&gt;&lt;/font&gt;&lt;/span&gt;&lt;/p&gt;&lt;p style=&quot;margin: 4px 0px 0px; text-align: center;&quot;&gt;OrderStatus&lt;/p&gt;&lt;hr style=&quot;border-style: solid;&quot;&gt;&lt;p style=&quot;margin: 0px 0px 0px 4px;&quot;&gt;&lt;font&gt;&lt;br&gt;&lt;/font&gt;&lt;/p&gt;&lt;p style=&quot;margin: 0px 0px 0px 4px;&quot;&gt;&amp;nbsp; &amp;nbsp;&lt;span style=&quot;background-color: transparent;&quot;&gt;&amp;nbsp;&lt;/span&gt;&lt;span style=&quot;background-color: transparent;&quot;&gt;DELIVERED,&lt;/span&gt;&lt;/p&gt;&lt;p style=&quot;margin: 0px 0px 0px 4px;&quot;&gt;&amp;nbsp; &amp;nbsp; CANCELLED,&lt;/p&gt;&lt;p style=&quot;margin: 0px 0px 0px 4px;&quot;&gt;&amp;nbsp; &amp;nbsp; RETURNED,&lt;/p&gt;&lt;p style=&quot;margin: 0px 0px 0px 4px;&quot;&gt;&amp;nbsp; &amp;nbsp; UNDELIVERED;&lt;/p&gt;" style="verticalAlign=top;align=left;overflow=fill;html=1;whiteSpace=wrap;strokeWidth=2;fontSize=16;fillColor=none;spacing=2;" vertex="1" parent="1">
          <mxGeometry x="-3086" y="1730" width="170" height="180" as="geometry" />
        </mxCell>
        <mxCell id="gvDfc5tq_xqZOOlfagx1-53" style="edgeStyle=orthogonalEdgeStyle;rounded=0;orthogonalLoop=1;jettySize=auto;html=1;entryX=0;entryY=0.5;entryDx=0;entryDy=0;fontSize=16;strokeWidth=2;" edge="1" parent="1" source="gvDfc5tq_xqZOOlfagx1-52" target="gvDfc5tq_xqZOOlfagx1-17">
          <mxGeometry relative="1" as="geometry" />
        </mxCell>
        <mxCell id="gvDfc5tq_xqZOOlfagx1-74" value="HAS-A" style="edgeLabel;html=1;align=center;verticalAlign=middle;resizable=0;points=[];fontSize=16;" vertex="1" connectable="0" parent="gvDfc5tq_xqZOOlfagx1-53">
          <mxGeometry x="-0.0905" relative="1" as="geometry">
            <mxPoint as="offset" />
          </mxGeometry>
        </mxCell>
        <mxCell id="gvDfc5tq_xqZOOlfagx1-54" style="edgeStyle=orthogonalEdgeStyle;rounded=0;orthogonalLoop=1;jettySize=auto;html=1;entryX=0.5;entryY=0;entryDx=0;entryDy=0;fontSize=16;strokeWidth=2;" edge="1" parent="1" source="gvDfc5tq_xqZOOlfagx1-52" target="gvDfc5tq_xqZOOlfagx1-34">
          <mxGeometry relative="1" as="geometry" />
        </mxCell>
        <mxCell id="gvDfc5tq_xqZOOlfagx1-59" value="HAS-A" style="edgeLabel;html=1;align=center;verticalAlign=middle;resizable=0;points=[];fontSize=16;" vertex="1" connectable="0" parent="gvDfc5tq_xqZOOlfagx1-54">
          <mxGeometry x="-0.4517" relative="1" as="geometry">
            <mxPoint as="offset" />
          </mxGeometry>
        </mxCell>
        <mxCell id="gvDfc5tq_xqZOOlfagx1-55" style="edgeStyle=orthogonalEdgeStyle;rounded=0;orthogonalLoop=1;jettySize=auto;html=1;fontSize=16;strokeWidth=2;" edge="1" parent="1" source="gvDfc5tq_xqZOOlfagx1-52" target="gvDfc5tq_xqZOOlfagx1-44">
          <mxGeometry relative="1" as="geometry" />
        </mxCell>
        <mxCell id="gvDfc5tq_xqZOOlfagx1-52" value="&lt;p style=&quot;margin: 4px 0px 0px; text-align: center;&quot;&gt;&lt;span style=&quot;background-color: initial;&quot;&gt;&lt;font&gt;&lt;i&gt;&amp;lt;&amp;lt; class &amp;gt;&amp;gt;&lt;/i&gt;&lt;/font&gt;&lt;/span&gt;&lt;/p&gt;&lt;p style=&quot;margin: 4px 0px 0px; text-align: center;&quot;&gt;&lt;b&gt;ProductDeliverySystem&lt;/b&gt;&lt;/p&gt;&lt;hr style=&quot;border-style: solid;&quot;&gt;&lt;p style=&quot;margin: 0px 0px 0px 4px;&quot;&gt;&lt;font&gt;&lt;br&gt;&lt;/font&gt;&lt;/p&gt;&lt;p style=&quot;margin: 0px 0px 0px 4px;&quot;&gt;&lt;span style=&quot;background-color: transparent;&quot;&gt;&amp;nbsp; &amp;nbsp;&amp;nbsp;&lt;/span&gt;&lt;span style=&quot;background-color: transparent;&quot;&gt;UserController userController;&lt;/span&gt;&lt;/p&gt;&lt;p style=&quot;margin: 0px 0px 0px 4px;&quot;&gt;&amp;nbsp; &amp;nbsp; WarehouseController warehouseController;&lt;/p&gt;&lt;p style=&quot;margin: 0px 0px 0px 4px;&quot;&gt;&amp;nbsp; &amp;nbsp; OrderController orderController;&lt;/p&gt;&lt;p style=&quot;margin: 0px 0px 0px 4px;&quot;&gt;&lt;br&gt;&lt;/p&gt;&lt;p style=&quot;margin: 0px 0px 0px 4px;&quot;&gt;&lt;span style=&quot;background-color: transparent; color: light-dark(rgb(0, 0, 0), rgb(255, 255, 255));&quot;&gt;&amp;nbsp; &amp;nbsp;&lt;/span&gt;&lt;span style=&quot;background-color: transparent; color: light-dark(rgb(0, 0, 0), rgb(255, 255, 255));&quot;&gt;&amp;nbsp;&lt;/span&gt;User getUser(int userId)&lt;/p&gt;&lt;p style=&quot;margin: 0px 0px 0px 4px;&quot;&gt;&lt;br&gt;&lt;/p&gt;&lt;p style=&quot;margin: 0px 0px 0px 4px;&quot;&gt;&lt;span style=&quot;background-color: transparent; color: light-dark(rgb(0, 0, 0), rgb(255, 255, 255));&quot;&gt;&amp;nbsp; &amp;nbsp;&lt;/span&gt;&lt;span style=&quot;background-color: transparent; color: light-dark(rgb(0, 0, 0), rgb(255, 255, 255));&quot;&gt;&amp;nbsp;&lt;/span&gt;Warehouse getWarehouse(WarehouseSelectionStrategy warehouseSelectionStrategy)&lt;/p&gt;&lt;p style=&quot;margin: 0px 0px 0px 4px;&quot;&gt;&lt;br&gt;&lt;/p&gt;&lt;p style=&quot;margin: 0px 0px 0px 4px;&quot;&gt;&lt;span style=&quot;background-color: transparent; color: light-dark(rgb(0, 0, 0), rgb(255, 255, 255));&quot;&gt;&amp;nbsp; &amp;nbsp;&lt;/span&gt;&lt;span style=&quot;background-color: transparent; color: light-dark(rgb(0, 0, 0), rgb(255, 255, 255));&quot;&gt;&amp;nbsp;&lt;/span&gt;Inventory getInventory(Warehouse warehouse)&lt;/p&gt;&lt;p style=&quot;margin: 0px 0px 0px 4px;&quot;&gt;&lt;br&gt;&lt;/p&gt;&lt;p style=&quot;margin: 0px 0px 0px 4px;&quot;&gt;&lt;span style=&quot;background-color: transparent; color: light-dark(rgb(0, 0, 0), rgb(255, 255, 255));&quot;&gt;&amp;nbsp; &amp;nbsp;&lt;/span&gt;&lt;span style=&quot;background-color: transparent; color: light-dark(rgb(0, 0, 0), rgb(255, 255, 255));&quot;&gt;&amp;nbsp;&lt;/span&gt;void addProductToCart(User user, ProductCategory product, int count)&lt;/p&gt;&lt;p style=&quot;margin: 0px 0px 0px 4px;&quot;&gt;&lt;br&gt;&lt;/p&gt;&lt;p style=&quot;margin: 0px 0px 0px 4px;&quot;&gt;&lt;span style=&quot;background-color: transparent; color: light-dark(rgb(0, 0, 0), rgb(255, 255, 255));&quot;&gt;&amp;nbsp; &amp;nbsp;&lt;/span&gt;&lt;span style=&quot;background-color: transparent; color: light-dark(rgb(0, 0, 0), rgb(255, 255, 255));&quot;&gt;&amp;nbsp;&lt;/span&gt;Order placeOrder(User user, Warehouse warehouse)&amp;nbsp;&lt;/p&gt;&lt;p style=&quot;margin: 0px 0px 0px 4px;&quot;&gt;&lt;br&gt;&lt;/p&gt;&lt;p style=&quot;margin: 0px 0px 0px 4px;&quot;&gt;&lt;span style=&quot;background-color: transparent; color: light-dark(rgb(0, 0, 0), rgb(255, 255, 255));&quot;&gt;&amp;nbsp; &amp;nbsp;&lt;/span&gt;&lt;span style=&quot;background-color: transparent; color: light-dark(rgb(0, 0, 0), rgb(255, 255, 255));&quot;&gt;&amp;nbsp;&lt;/span&gt;void checkout(Order order)&lt;/p&gt;" style="verticalAlign=top;align=left;overflow=fill;html=1;whiteSpace=wrap;strokeWidth=2;fontSize=16;fillColor=none;spacing=2;" vertex="1" parent="1">
          <mxGeometry x="-3220" y="95" width="660" height="390" as="geometry" />
        </mxCell>
      </root>
    </mxGraphModel>
  </diagram>
</mxfile>
